<svg xmlns="http://www.w3.org/2000/svg" width="23" height="23" version="1.1" viewBox="0 0 23 23"><title>WP Discourse</title><g id="Page-1" fill="none" fill-rule="evenodd" stroke="none" stroke-width="1"><g id="Group" fill="#000" fill-rule="nonzero"><path id="Shape" d="M11.5975446,0 C5.30334821,0 0,5.05691964 0,11.2997768 C0,11.5 0.00513392857,23 0.00513392857,23 L11.5975446,22.9897321 C17.896875,22.9897321 23,17.7377232 23,11.4948661 C23,5.25200893 17.896875,0 11.5975446,0 Z M11.5,18.0714286 C10.5040179,18.0714286 9.55424107,17.8506696 8.70714286,17.4502232 L4.54352679,18.4821429 L5.71919643,14.6316964 C5.21607143,13.7024554 4.92857143,12.6345982 4.92857143,11.5 C4.92857143,7.8703125 7.8703125,4.92857143 11.5,4.92857143 C15.1296875,4.92857143 18.0714286,7.8703125 18.0714286,11.5 C18.0714286,15.1296875 15.1296875,18.0714286 11.5,18.0714286 Z"/></g></g></svg>